<svg xmlns="http://www.w3.org/2000/svg" viewBox="0 0 300 80" width="300" height="80">
  <svg x="0" y="8" width="64" height="64" viewBox="0 0 220 220">
    <path fill-rule="evenodd" clip-rule="evenodd" d="M11 125.196V56.8108C11 40.899 24.9129 28 42.0752 28H144.512L207.457 86.3603C209.152 89.4273 210 91.5302 210 92.6688C210 116.422 210 140.175 210 163.928C210 179.432 196.444 192 179.722 192H143.267C142.913 192 142.159 192 141.005 192C139.275 192 135.21 190.566 132.1 187.611C130.027 185.642 113.551 170.098 82.6722 140.981L78.7226 137.38C78.3107 137.005 78.1808 136.437 78.3929 135.939C78.604 135.443 79.1208 135.117 79.6958 135.117H138.885C141.305 135.117 143.267 133.298 143.267 131.054V90.4234C143.267 88.1794 141.305 86.3603 138.885 86.3603H81.3161C78.8958 86.3603 76.9339 88.1794 76.9339 90.4234V189.603C76.9339 190.321 76.3061 190.903 75.5319 190.903H74.9512C74.4121 190.902 73.8969 190.697 73.5326 190.329C37.5835 155.748 18.178 137.002 15.3163 134.09C12.4415 131.165 11.0028 128.207 11 125.217C11 125.21 11 125.203 11 125.196Z" fill="#0F172A"/>
  </svg>
  <text x="78" y="53" font-family="Inter, -apple-system, BlinkMacSystemFont, 'Segoe UI', Helvetica, Arial, sans-serif" font-size="40" font-weight="700" letter-spacing="-1.2" fill="#0F172A">revio</text>
</svg>
